<svg xmlns="http://www.w3.org/2000/svg" width="25.6" height="25.6" viewBox="0 0 25.6 25.6">
  <path id="Path_1" data-name="Path 1" d="M7.2,3.2a4,4,0,0,0-4,4V24.8a4,4,0,0,0,4,4H24.8a4,4,0,0,0,4-4V7.2a4,4,0,0,0-4-4Zm9.055,14.738-1.614,2.951a.64.64,0,0,1-1.123,0L11.9,17.938a3.836,3.836,0,0,0-1.526-1.526L7.427,14.8a.64.64,0,0,1,0-1.123l2.951-1.614A3.841,3.841,0,0,0,11.9,10.534l1.614-2.951a.64.64,0,0,1,1.123,0l1.614,2.951a3.841,3.841,0,0,0,1.526,1.526l2.951,1.614a.64.64,0,0,1,0,1.123l-2.951,1.614A3.84,3.84,0,0,0,16.255,17.938Zm8.805,4.647-1.436.785a.649.649,0,0,0-.254.255l-.786,1.436a.766.766,0,0,1-.674.4h0a.766.766,0,0,1-.674-.4l-.784-1.432a.635.635,0,0,0-.254-.254l-1.437-.787a.767.767,0,0,1,0-1.348l1.434-.785a.635.635,0,0,0,.254-.254l.787-1.437a.767.767,0,0,1,.671-.4h0a.77.77,0,0,1,.674.4h0L23.37,20.2a.641.641,0,0,0,.255.254l1.437.787a.768.768,0,0,1,0,1.348Z" transform="translate(-3.2 -3.2)" fill="#006ffd"/>
</svg>
